<svg width="114" height="128" viewBox="0 0 114 128" fill="none" xmlns="http://www.w3.org/2000/svg">
<path fill-rule="evenodd" clip-rule="evenodd" d="M62.2691 1.57607L85.3426 15.0212L108.801 28.4664C111.877 30.003 113.8 33.4603 113.8 37.3018V64.1921V91.0824C113.8 94.5397 111.877 97.997 108.801 99.9178L85.3426 113.363L62.2691 126.424L61.8846 126.808H61.5V127.192H61.1155H60.7309L60.3463 127.576H59.9618H59.5772H59.1927V127.961H58.8081H58.4236H58.039H57.6544H57.2699H56.8853H56.5008H56.1162H55.7316H55.3471H54.9625L54.578 127.576H54.1934H53.8089H53.4243V127.192H53.0397H52.6552V126.808H52.2706H51.8861V126.424L28.428 113.363L5.35458 99.9178C1.89356 97.997 0.355331 94.5397 0.355331 91.0824V64.1921V37.3018C0.355331 33.4603 1.89356 30.003 5.35458 28.4664L28.428 15.0212L51.8861 1.57607C54.9625 -0.344671 58.8081 -0.344671 62.2691 1.57607ZM45.3486 102.607L53.4243 107.217H53.8089L54.1934 107.601H54.578H54.9625V107.985H55.3471H55.7316H56.1162H56.5008H56.8853H57.2699H57.6544H58.039H58.4236H58.8081H59.1927V107.601H59.5772H59.9618V107.217H60.3463L68.4221 102.607L76.4978 97.997L92.6492 88.7775C94.9565 87.2409 96.1102 85.3202 96.1102 82.6311V64.1921V45.3689C96.1102 43.064 94.9565 40.7591 92.6492 39.2225L76.4978 30.003L60.3463 20.7834H59.9618V20.3993H59.5772H59.1927L58.8081 20.0151H58.4236H58.039H57.6544H57.2699H56.8853H56.5008H56.1162H55.7316H55.3471H54.9625V20.3993H54.578H54.1934V20.7834H53.8089H53.4243L37.2729 30.003L21.506 39.2225C19.1987 40.7591 17.6604 43.064 17.6604 45.3689V64.1921V82.6311C17.6604 85.3202 19.1987 87.2409 21.506 88.7775L37.2729 97.997L45.3486 102.607Z" fill="#EB2629"/>
</svg>
