<svg width="51" height="60" viewBox="0 0 51 60" fill="none" xmlns="http://www.w3.org/2000/svg">
<path d="M27.2533 58.2933C26.1867 58.6933 25.12 59.0666 24 59.3333C10.24 55.9733 0 42.1333 0 27.3333V11.3333L24 0.666626L48 11.3333V27.3333C48 29.7333 47.7067 32.08 47.2 34.4C45.04 33.3066 42.5867 32.6666 40 32.6666C31.1733 32.6666 24 39.84 24 48.6666C24 52.2933 25.2267 55.6266 27.2533 58.2933ZM42.6667 51.3333V59.3066C42.6667 59.3066 37.36 59.3333 37.3333 59.3066V51.3333H29.3333V46H37.3333V38H42.6667V46H50.6667V51.3333H42.6667Z" fill="#EB2629"/>
</svg>
