<svg width="183" height="204" fill="none" xmlns="http://www.w3.org/2000/svg"><path fill-rule="evenodd" clip-rule="evenodd" d="m99.87 2.3 37.22 21.46 37.85 21.45c4.96 2.46 8.06 7.97 8.06 14.1v85.84c0 5.51-3.1 11.03-8.06 14.1L137.1 180.7l-37.23 20.85-.62.61h-.62v.61H97.4l-.62.62H94.91v.61H88.1l-.62-.61H85.6v-.62h-1.24v-.6h-1.24v-.62L45.28 180.7 8.06 159.25C2.48 156.18 0 150.66 0 145.15V59.3c0-6.13 2.48-11.64 8.06-14.1l37.22-21.45L83.13 2.3c4.96-3.07 11.16-3.07 16.74 0ZM72.58 163.54l13.03 7.35h.62l.62.62h1.24v.61h6.82v-.61h1.24v-.62h.62l13.03-7.35 13.03-7.36 26.05-14.71c3.72-2.46 5.58-5.52 5.58-9.81V72.19c0-3.68-1.86-7.36-5.58-9.81l-26.05-14.71-26.06-14.72h-.62v-.61h-1.24l-.62-.61h-6.2v.61h-1.24v.61H85.6L59.55 47.67 34.12 62.38c-3.72 2.45-6.2 6.13-6.2 9.8V131.67c0 4.29 2.48 7.35 6.2 9.8l25.43 14.72 13.03 7.36Z" fill="#F1F5F9"/></svg>