<svg width="173" height="43" fill="none" xmlns="http://www.w3.org/2000/svg"><path fill-rule="evenodd" clip-rule="evenodd" d="m86.76.51 7.78 4.52 7.91 4.52a3.26 3.26 0 0 1 1.69 2.96v18.07c0 1.16-.65 2.32-1.69 2.97l-7.91 4.52-7.78 4.38-.13.13h-.13v.13h-.26l-.13.13h-.39v.13H84.3l-.13-.13h-.39v-.13h-.26v-.13h-.26v-.13l-7.91-4.38-7.78-4.52a3.3 3.3 0 0 1-1.69-2.97V12.51c0-1.29.52-2.45 1.69-2.96l7.78-4.52 7.9-4.52a3.4 3.4 0 0 1 3.5 0Zm-5.7 33.94L83.77 36h.13l.13.13h.26v.13h1.42v-.13h.26V36h.13l2.72-1.55 2.73-1.55L97 29.8c.78-.5 1.17-1.15 1.17-2.06V15.23c0-.78-.39-1.55-1.17-2.07l-5.44-3.1-5.45-3.1h-.13v-.12h-.26l-.13-.13H84.3v.13h-.26v.13h-.26l-5.45 3.1-5.32 3.09c-.78.52-1.3 1.3-1.3 2.06V27.76c0 .9.52 1.54 1.3 2.06l5.32 3.1 2.72 1.54Z" fill="#EB2629"/><path d="M111.66 32.9c-.52 0-.9-.12-1.3-.51a1.65 1.65 0 0 1-.52-1.3V11.88c0-.52.13-.9.52-1.3.4-.25.78-.5 1.3-.5h1.94c.52 0 .91.25 1.17.5.39.4.52.78.52 1.3v16.39c0 .13.13.26.39.26h7.52c.52 0 .9.13 1.3.51.39.39.52.78.52 1.3v.77c0 .51-.13.9-.52 1.29-.4.39-.78.51-1.3.51h-11.54ZM1.82 14.45c-.52 0-.91-.13-1.3-.52A1.57 1.57 0 0 1 0 12.77v-.9c0-.52.13-.9.52-1.3.39-.25.78-.5 1.3-.5h14.65c.39 0 .9.25 1.17.5.39.4.52.78.52 1.3v.9c0 .39-.13.78-.52 1.16-.26.4-.78.52-1.17.52h-4.4c-.14 0-.27.13-.27.26V31.1c0 .51-.13.9-.52 1.29s-.78.51-1.3.51H8.18c-.52 0-.9-.12-1.3-.51a1.65 1.65 0 0 1-.52-1.3V14.72c0-.13 0-.26-.25-.26H1.82Zm28.79.26-2.47 8.9v.26h4.93v-.26l-2.46-8.9Zm-8.7 18.2c-.51 0-.77-.13-1.03-.52s-.39-.78-.13-1.16l6.48-19.49c.26-.52.52-.9 1.04-1.16.39-.39.9-.52 1.43-.52h2.07c.52 0 .91.13 1.43.52.39.26.65.64.9 1.16l6.62 19.49c.13.38 0 .77-.26 1.16-.26.39-.52.51-1.04.51h-2.07a2.32 2.32 0 0 1-2.2-1.68l-.78-2.96c-.13-.26-.13-.26-.4-.26h-6.74c-.13 0-.26 0-.39.26l-.77 2.97c-.13.38-.4.9-.78 1.16-.39.39-.9.51-1.43.51h-1.94Zm27.24-9.04-6.74-12.26c-.26-.26-.26-.64 0-1.03.13-.26.52-.52.9-.52h2.6c.52 0 1.04.13 1.43.52.51.26.77.64 1.03 1.16L52 19.87h.13l3.63-8.13c.26-.52.65-.9 1.17-1.16.4-.39.91-.52 1.43-.52h2.46c.4 0 .65.26.91.52.13.39.13.77 0 1.03l-6.87 12.26c0 .26-.13.39-.13.52v6.7c0 .52-.13.91-.52 1.3-.26.39-.78.51-1.17.51H51.1c-.52 0-.91-.12-1.3-.51a1.65 1.65 0 0 1-.52-1.3v-6.7c0-.13 0-.26-.13-.52Zm85.07-9.42v14.2c0 .13.13.25.26.25.52.13 1.04.13 1.56.13 4.4 0 6.61-2.58 6.61-7.87 0-4.77-2.2-7.23-6.61-7.23-.52 0-1.04 0-1.56.13-.13 0-.26.13-.26.4Zm-3.37 18.45c-.52 0-.9-.25-1.3-.64a1.65 1.65 0 0 1-.51-1.3V12c0-.52.13-.9.52-1.3.38-.38.77-.64 1.3-.64 1.55-.26 3.23-.26 4.8-.26 3.88 0 6.86 1.04 8.94 2.97 2.07 2.07 3.24 4.78 3.24 8.4 0 3.86-1.17 6.83-3.24 8.9-2.08 2.06-5.06 3.1-8.95 3.1-1.56 0-3.24 0-4.8-.27ZM165.87 16a5.87 5.87 0 0 0-4.54-1.8c-1.95 0-3.5.64-4.54 1.8-1.04 1.29-1.56 3.1-1.56 5.55 0 2.32.52 4.13 1.56 5.42s2.6 1.8 4.54 1.8 3.5-.51 4.54-1.8a8.46 8.46 0 0 0 1.68-5.42c0-2.45-.65-4.26-1.68-5.55Zm3.89 14.07c-2.08 2.06-4.93 3.1-8.43 3.1s-6.36-1.04-8.43-3.1c-2.08-2.07-3.11-5.04-3.11-8.52 0-3.62 1.03-6.45 3.1-8.65 2.08-2.06 4.94-3.1 8.44-3.1 3.5 0 6.35 1.04 8.43 3.1 2.2 2.2 3.24 5.03 3.24 8.65 0 3.48-1.04 6.45-3.24 8.52Z" fill="#000"/></svg>